<?xml version="1.0" standalone="no"?>
<!DOCTYPE svg PUBLIC "-//W3C//DTD SVG 20010904//EN"
 "http://www.w3.org/TR/2001/REC-SVG-20010904/DTD/svg10.dtd">
<svg version="1.0" xmlns="http://www.w3.org/2000/svg"
 width="1120.000000pt" height="1120.000000pt" viewBox="0 0 1120.000000 1120.000000"
 preserveAspectRatio="xMidYMid meet">

<g transform="translate(0.000000,1120.000000) scale(0.100000,-0.100000)"
fill="#000000" stroke="none">
<path d="M3605 6199 c-11 -16 -1 -19 13 -3 7 8 8 14 3 14 -5 0 -13 -5 -16 -11z"/>
<path d="M3120 6166 c-81 -17 -157 -62 -227 -134 -74 -75 -109 -142 -130 -252
-54 -272 130 -529 408 -571 64 -10 87 -9 150 5 80 18 159 47 159 58 0 12 -60
103 -68 103 -4 -1 -33 -9 -66 -19 -200 -62 -397 54 -446 263 -35 149 48 319
189 388 48 24 68 28 146 28 73 0 98 -4 134 -23 25 -12 48 -22 52 -22 12 0 69
86 69 103 0 8 -26 26 -59 41 -102 46 -202 56 -311 32z"/>
<path d="M5220 5715 l0 -465 55 0 55 0 0 465 0 465 -55 0 -55 0 0 -465z"/>
<path d="M5550 5715 l0 -465 55 0 55 0 0 465 0 465 -55 0 -55 0 0 -465z"/>
<path d="M6600 5715 l0 -465 50 0 50 0 0 46 0 46 35 -31 c64 -56 112 -75 195
-75 130 -1 234 63 292 182 30 60 33 75 33 157 0 76 -4 98 -26 145 -55 116
-153 182 -280 188 -90 5 -142 -14 -208 -73 l-41 -37 0 191 0 191 -50 0 -50 0
0 -465z m376 92 c69 -18 118 -59 150 -123 22 -46 26 -64 22 -123 -7 -126 -92
-221 -206 -229 -96 -7 -176 41 -218 133 -67 143 6 310 151 346 44 10 46 10
101 -4z"/>
<path d="M7435 6145 c-45 -44 -25 -117 35 -130 61 -13 113 50 89 107 -22 53
-83 65 -124 23z"/>
<path d="M3600 6052 c0 -3 11 -14 23 -26 19 -18 28 -20 46 -12 25 11 52 -6 30
-19 -8 -5 -10 -4 -5 3 11 18 -19 15 -34 -3 -11 -13 -7 -15 24 -15 20 0 36 4
36 10 0 5 6 7 14 4 21 -8 41 33 25 52 -9 11 -31 14 -86 12 -40 -1 -73 -4 -73
-6z m70 -12 c0 -5 -2 -10 -4 -10 -3 0 -8 5 -11 10 -3 6 -1 10 4 10 6 0 11 -4
11 -10z"/>
<path d="M4552 5889 c-68 -27 -145 -102 -180 -176 -33 -71 -37 -178 -9 -260
20 -58 82 -133 137 -168 170 -108 402 -42 498 140 24 44 27 61 27 150 0 85 -4
107 -24 147 -33 67 -93 125 -164 159 -54 25 -73 29 -147 28 -60 0 -100 -6
-138 -20z m204 -84 c219 -65 225 -370 9 -461 -81 -33 -192 -1 -257 75 -109
128 -55 327 104 382 65 22 81 23 144 4z"/>
<path d="M5995 5897 c-34 -12 -102 -43 -113 -52 -4 -3 36 -85 41 -85 2 0 22 9
45 20 164 79 332 13 332 -131 0 -35 -2 -40 -17 -34 -91 38 -234 49 -309 25
-90 -29 -143 -101 -144 -193 0 -86 39 -145 125 -190 87 -46 243 -21 318 50
l27 27 0 -42 0 -42 55 0 55 0 0 205 c0 112 -5 226 -11 254 -16 75 -57 131
-120 166 -47 26 -65 30 -149 32 -59 2 -110 -2 -135 -10z m250 -345 c33 -10 59
-20 58 -25 -2 -4 -3 -25 -3 -47 0 -79 -95 -149 -203 -150 -96 0 -156 43 -157
112 0 66 22 93 100 121 31 11 147 5 205 -11z"/>
<path d="M7911 5892 c-59 -23 -140 -98 -176 -163 -22 -42 -30 -70 -33 -129 -9
-153 53 -264 182 -330 63 -32 76 -35 155 -35 72 0 95 4 142 26 79 37 133 90
171 167 29 58 33 76 33 147 0 66 -5 90 -26 136 -36 76 -86 129 -156 164 -50
26 -71 30 -153 32 -71 2 -106 -2 -139 -15z m200 -87 c183 -62 226 -292 78
-418 -105 -91 -260 -67 -344 51 -25 37 -30 54 -33 118 -4 65 -1 81 23 129 30
62 74 101 137 120 57 18 86 18 139 0z"/>
<path d="M7430 5575 l0 -325 50 0 50 0 0 325 0 325 -50 0 -50 0 0 -325z"/>
<path d="M3700 5247 c-49 -44 -18 -116 41 -95 28 10 44 33 33 49 -3 5 -1 9 4
9 4 0 8 14 8 30 0 27 -3 30 -30 30 -18 0 -42 -10 -56 -23z"/>
</g>
</svg>
